<svg t="1616730049260" class="icon" viewBox="0 0 1024 1024" version="1.1" xmlns="http://www.w3.org/2000/svg" p-id="1872" width="24" height="24"><path d="M149.333333 746.666667a64 64 0 1 1 0 128 64 64 0 0 1 0-128z m746.666667 21.333333a42.666667 42.666667 0 1 1 0 85.333333H341.333333a42.666667 42.666667 0 1 1 0-85.333333h554.666667zM149.333333 448a64 64 0 1 1 0 128 64 64 0 0 1 0-128z m746.666667 21.333333a42.666667 42.666667 0 1 1 0 85.333334H341.333333a42.666667 42.666667 0 1 1 0-85.333334h554.666667zM149.333333 149.333333a64 64 0 1 1 0 128 64 64 0 0 1 0-128z m746.666667 21.333334a42.666667 42.666667 0 1 1 0 85.333333H341.333333a42.666667 42.666667 0 1 1 0-85.333333h554.666667z" p-id="1873"></path></svg>
